<?xml version="1.0" encoding="utf-8"?>
<!-- Generator: Adobe Illustrator 27.5.0, SVG Export Plug-In . SVG Version: 6.00 Build 0)  -->
<svg version="1.1" xmlns="http://www.w3.org/2000/svg" xmlns:xlink="http://www.w3.org/1999/xlink" x="0px" y="0px"
	 viewBox="0 0 500 500" style="enable-background:new 0 0 500 500;" xml:space="preserve">
<g id="BACKGROUND">
	<rect id="XMLID_17_" style="fill:#F8FAFB;" width="500" height="500"/>
</g>
<g id="OBJECTS">
	<g>
		<path style="fill:#D4DDF3;" d="M472.425,174.083h-80.279c0,0,10.035-19.013,29.576-14.788c11.619-30.104,36.442-15.844,34.858,0
			C469.784,132.359,489.326,158.238,472.425,174.083z"/>
		<path style="fill:#D4DDF3;" d="M100.353,246.452H20.075c0,0,10.035-19.013,29.576-14.788c11.619-30.104,36.442-15.844,34.858,0
			C97.713,204.728,117.254,230.607,100.353,246.452z"/>
		<path style="fill:#FF8ABC;" d="M85.456,342.79c-7.469-8.589-21.641-10.286-30.926-3.702c-9.285,6.584-12.372,20.52-6.737,30.409
			c-9.598,2.135-15.844,12.355-15.966,22.187c-0.122,9.832,4.666,19.107,10.601,26.947c2.564,3.387,5.523,6.714,9.472,8.283
			c7.147,2.839,15.287-0.919,21.074-5.982c14.384-12.585,20.12-32.323,22.92-51.229"/>
		<path style="fill:#FF8ABC;" d="M232.77,339.196c0,0,70.509-36.787,89.669,9.197c32.189-26.824,47.517,26.824,25.291,45.984
			c38.32-22.226,50.583,9.963,45.218,31.422c-115.727,0-138.719,0-138.719,0L232.77,339.196z"/>
		<path style="fill:#E16FB4;" d="M264.516,376.829c0,0,9.768-16.784,26.769-14.08c17.001,2.704,8.919,24.44,8.919,24.44
			s6.396-7.15,11.882-4.844c7.883,3.314,4.26,19.706,4.26,19.706s36.913-7.05,43.043,26.549
			c-29.425-0.273-100.221-5.192-100.221-5.192L264.516,376.829z"/>
		<g>
			<g>
				<rect x="119.854" y="82.093" style="fill:#702D28;" width="4.979" height="16.122"/>
				<rect x="215.167" y="82.093" style="fill:#702D28;" width="4.979" height="16.122"/>
			</g>
			<g>
				<g>
					<path style="fill:#7B3D39;" d="M237.982,85.684H102.018c-2.749,0-4.978-2.229-4.978-4.978V47.336
						c0-2.749,2.229-4.978,4.978-4.978h135.964c2.749,0,4.978,2.229,4.978,4.978v33.369
						C242.96,83.455,240.731,85.684,237.982,85.684z"/>
					<path style="fill:#CD443D;" d="M233.708,81.076H106.293c-2.223,0-4.025-1.802-4.025-4.025v-26.06
						c0-2.223,1.802-4.025,4.025-4.025h127.415c2.223,0,4.025,1.802,4.025,4.025v26.06C237.732,79.274,235.93,81.076,233.708,81.076
						z"/>
					<path style="fill:none;stroke:#FFFFFF;stroke-miterlimit:10;" d="M232.149,78.345H107.851c-1.284,0-2.325-1.041-2.325-2.325
						V52.023c0-1.284,1.041-2.325,2.325-2.325h124.298c1.284,0,2.325,1.041,2.325,2.325V76.02
						C234.474,77.304,233.433,78.345,232.149,78.345z"/>
					
						<text transform="matrix(1 0 0 1 122.5771 72.9033)" style="fill:#F8FAFB; font-family:'OpenSans-Bold'; font-size:27.1648px; letter-spacing:1;">hotel</text>
					<path style="fill:#CD443D;" d="M238.337,45.59c0,0.499,0.405,0.904,0.905,0.904c0.499,0,0.905-0.405,0.905-0.904
						c0-0.5-0.405-0.905-0.905-0.905C238.742,44.685,238.337,45.09,238.337,45.59z"/>
					<path style="fill:#CD443D;" d="M238.337,82.324c0,0.5,0.405,0.905,0.905,0.905c0.499,0,0.905-0.405,0.905-0.905
						c0-0.499-0.405-0.904-0.905-0.904C238.742,81.419,238.337,81.824,238.337,82.324z"/>
					<path style="fill:#CD443D;" d="M99.934,45.59c0,0.499,0.405,0.904,0.904,0.904c0.5,0,0.905-0.405,0.905-0.904
						c0-0.5-0.405-0.905-0.905-0.905C100.339,44.685,99.934,45.09,99.934,45.59z"/>
					<path style="fill:#CD443D;" d="M99.934,82.324c0,0.5,0.405,0.905,0.904,0.905c0.5,0,0.905-0.405,0.905-0.905
						c0-0.499-0.405-0.904-0.905-0.904C100.339,81.419,99.934,81.824,99.934,82.324z"/>
				</g>
				<polygon style="fill:#F8FAFB;" points="115.768,56.871 116.943,61.253 121.474,61.017 117.67,63.489 119.295,67.726 
					115.768,64.871 112.241,67.726 113.866,63.489 110.062,61.017 114.592,61.253 				"/>
				<polygon style="fill:#F8FAFB;" points="224.855,56.871 226.031,61.253 230.561,61.017 226.757,63.489 228.382,67.726 
					224.855,64.871 221.328,67.726 222.953,63.489 219.149,61.017 223.679,61.253 				"/>
			</g>
			<g>
				<defs>
					<rect id="XMLID_66_" x="66.072" y="104.355" width="207.855" height="61.373"/>
				</defs>
				<use xlink:href="#XMLID_66_"  style="overflow:visible;fill:#EFB7A7;"/>
				<clipPath id="XMLID_00000178178005618921971240000008567829121310472585_">
					<use xlink:href="#XMLID_66_"  style="overflow:visible;"/>
				</clipPath>
				
					<rect x="62.611" y="85.985" style="opacity:0.2;clip-path:url(#XMLID_00000178178005618921971240000008567829121310472585_);fill:#033553;" width="217.826" height="25.442"/>
			</g>
			<rect x="46.981" y="95.675" style="fill:#FFCABE;" width="246.038" height="12.067"/>
			<g>
				<defs>
					<rect id="XMLID_20_" x="57.773" y="117.849" width="224.454" height="308.669"/>
				</defs>
				<use xlink:href="#XMLID_20_"  style="overflow:visible;fill:#409BA0;"/>
				<clipPath id="XMLID_00000121998154556776603900000011366035353298212271_">
					<use xlink:href="#XMLID_20_"  style="overflow:visible;"/>
				</clipPath>
				
					<rect x="47.502" y="311.081" style="clip-path:url(#XMLID_00000121998154556776603900000011366035353298212271_);fill:#7B3D39;" width="244.132" height="122.111"/>
				
					<rect x="55.367" y="105.109" style="opacity:0.2;clip-path:url(#XMLID_00000121998154556776603900000011366035353298212271_);fill:#033553;" width="231.628" height="20.173"/>
				
					<rect x="55.367" y="303.236" style="opacity:0.2;clip-path:url(#XMLID_00000121998154556776603900000011366035353298212271_);fill:#033553;" width="231.628" height="20.173"/>
				
					<rect x="55.367" y="390.522" style="opacity:0.2;clip-path:url(#XMLID_00000121998154556776603900000011366035353298212271_);fill:#033553;" width="231.628" height="36.642"/>
				
					<rect x="55.367" y="421.189" style="opacity:0.2;clip-path:url(#XMLID_00000121998154556776603900000011366035353298212271_);fill:#033553;" width="231.628" height="36.642"/>
				
					<rect x="57.403" y="402.183" style="opacity:0.2;clip-path:url(#XMLID_00000121998154556776603900000011366035353298212271_);fill:#033553;" width="231.628" height="2.358"/>
				
					<rect x="88.805" y="347.695" style="opacity:0.2;clip-path:url(#XMLID_00000121998154556776603900000011366035353298212271_);fill:#033553;" width="56.129" height="79.419"/>
				
					<rect x="91.177" y="343.585" style="clip-path:url(#XMLID_00000121998154556776603900000011366035353298212271_);fill:#FFCABE;" width="51.383" height="85.639"/>
				
					<rect x="95.668" y="348.199" style="clip-path:url(#XMLID_00000121998154556776603900000011366035353298212271_);fill:#033553;" width="42.403" height="78.411"/>
				
					<rect x="55.367" y="150.499" style="opacity:0.2;clip-path:url(#XMLID_00000121998154556776603900000011366035353298212271_);fill:#033553;" width="231.628" height="6.844"/>
				
					<rect x="52.139" y="370.297" style="opacity:0.2;clip-path:url(#XMLID_00000121998154556776603900000011366035353298212271_);fill:#033553;" width="16.333" height="10"/>
				
					<rect x="46.806" y="356.63" style="opacity:0.2;clip-path:url(#XMLID_00000121998154556776603900000011366035353298212271_);fill:#033553;" width="16.333" height="10"/>
				
					<rect x="52.139" y="342.863" style="opacity:0.2;clip-path:url(#XMLID_00000121998154556776603900000011366035353298212271_);fill:#033553;" width="16.333" height="10"/>
				
					<rect x="46.806" y="329.197" style="opacity:0.2;clip-path:url(#XMLID_00000121998154556776603900000011366035353298212271_);fill:#033553;" width="16.333" height="10"/>
				
					<rect x="276.472" y="370.297" style="opacity:0.2;clip-path:url(#XMLID_00000121998154556776603900000011366035353298212271_);fill:#033553;" width="16.333" height="10"/>
				
					<rect x="271.139" y="356.63" style="opacity:0.2;clip-path:url(#XMLID_00000121998154556776603900000011366035353298212271_);fill:#033553;" width="16.333" height="10"/>
				
					<rect x="276.472" y="342.863" style="opacity:0.2;clip-path:url(#XMLID_00000121998154556776603900000011366035353298212271_);fill:#033553;" width="16.333" height="10"/>
				
					<rect x="271.139" y="329.197" style="opacity:0.2;clip-path:url(#XMLID_00000121998154556776603900000011366035353298212271_);fill:#033553;" width="16.333" height="10"/>
				
					<rect x="115.092" y="345.667" style="clip-path:url(#XMLID_00000121998154556776603900000011366035353298212271_);fill:#FFCABE;" width="4" height="85.333"/>
			</g>
			<rect x="51.366" y="148.009" style="fill:#033553;" width="237.269" height="6.819"/>
			<g>
				<defs>
					<rect id="XMLID_65_" x="53.326" y="301.747" width="233.347" height="15.911"/>
				</defs>
				<use xlink:href="#XMLID_65_"  style="overflow:visible;fill:#033553;"/>
				<clipPath id="XMLID_00000063590832340263932710000013835481173596882877_">
					<use xlink:href="#XMLID_65_"  style="overflow:visible;"/>
				</clipPath>
				
					<rect x="51.258" y="281" style="clip-path:url(#XMLID_00000063590832340263932710000013835481173596882877_);fill:#FFFFFF;" width="241.5" height="25.5"/>
			</g>
			<rect x="53.326" y="116.08" style="fill:#033553;" width="233.347" height="5.245"/>
			<g>
				<g>
					<g>
						<rect x="77.664" y="173.259" style="fill:#033553;" width="25.673" height="2.612"/>
						<path style="fill:#FFCABE;" d="M103.336,172.002H77.664l0,0c0-4.784,3.878-8.662,8.662-8.662h8.349
							C99.458,163.34,103.336,167.219,103.336,172.002L103.336,172.002z"/>
						<rect x="75.346" y="171.435" style="fill:#EFB7A7;" width="30.309" height="1.91"/>
						<rect x="76.395" y="174.909" style="fill:#033553;" width="28.211" height="40.973"/>
						<rect x="74.84" y="215.523" style="fill:#35848A;" width="31.321" height="7.311"/>
						<g>
							<defs>
								<rect id="XMLID_22_" x="73.333" y="213.333" width="34.334" height="7.859"/>
							</defs>
							<use xlink:href="#XMLID_22_"  style="overflow:visible;fill:#033553;"/>
							<clipPath id="XMLID_00000097493429026168208230000006179553613306627754_">
								<use xlink:href="#XMLID_22_"  style="overflow:visible;"/>
							</clipPath>
							
								<rect x="71.05" y="205.721" style="clip-path:url(#XMLID_00000097493429026168208230000006179553613306627754_);fill:#FFFFFF;" width="38.164" height="9.147"/>
						</g>
						<g>
							<defs>
								<rect id="XMLID_21_" x="79.087" y="177.642" width="22.827" height="35.506"/>
							</defs>
							
								<linearGradient id="XMLID_00000079466422962810760300000016938504432631897279_" gradientUnits="userSpaceOnUse" x1="90.5" y1="209.7603" x2="90.5" y2="173.2738">
								<stop  offset="0" style="stop-color:#FFBEB4"/>
								<stop  offset="1" style="stop-color:#C77BCC"/>
							</linearGradient>
							
								<use xlink:href="#XMLID_21_"  style="overflow:visible;fill:url(#XMLID_00000079466422962810760300000016938504432631897279_);"/>
							<clipPath id="XMLID_00000083796791708097044090000018068123316435222935_">
								<use xlink:href="#XMLID_21_"  style="overflow:visible;"/>
							</clipPath>
							
								<polygon style="opacity:0.2;clip-path:url(#XMLID_00000083796791708097044090000018068123316435222935_);fill:#5A2F5B;" points="
								110.371,168.443 68.423,220.484 73.311,224.111 111.16,176.958 							"/>
							<polygon style="clip-path:url(#XMLID_00000083796791708097044090000018068123316435222935_);fill:#FFFFFF;" points="
								111.948,161.188 70,213.23 69.132,211.101 106.98,163.948 							"/>
							<polygon style="clip-path:url(#XMLID_00000083796791708097044090000018068123316435222935_);fill:#FFFFFF;" points="
								117.941,166.393 75.992,218.434 77.017,218.197 114.866,171.045 							"/>
							
								<polygon style="opacity:0.2;clip-path:url(#XMLID_00000083796791708097044090000018068123316435222935_);fill:#5A2F5B;" points="
								110.371,183.74 68.423,235.781 73.311,249.974 111.16,202.822 							"/>
						</g>
					</g>
					<g>
						<path style="fill:#EFB7A7;" d="M92.481,167.824c0,1.079-0.875,1.954-1.954,1.954c-1.079,0-1.954-0.875-1.954-1.954
							c0-1.079,0.875-1.954,1.954-1.954C91.606,165.87,92.481,166.745,92.481,167.824z"/>
						<circle style="fill:#EFB7A7;" cx="83.977" cy="168.036" r="1.004"/>
						<circle style="fill:#EFB7A7;" cx="97.023" cy="168.036" r="1.004"/>
					</g>
				</g>
				<g>
					<g>
						<rect x="130.664" y="173.259" style="fill:#033553;" width="25.673" height="2.612"/>
						<path style="fill:#FFCABE;" d="M156.336,172.002h-25.673l0,0c0-4.784,3.878-8.662,8.662-8.662h8.349
							C152.458,163.34,156.336,167.219,156.336,172.002L156.336,172.002z"/>
						<rect x="128.346" y="171.435" style="fill:#EFB7A7;" width="30.309" height="1.91"/>
						<rect x="129.395" y="174.909" style="fill:#033553;" width="28.211" height="40.973"/>
						<rect x="127.84" y="215.523" style="fill:#35848A;" width="31.321" height="7.311"/>
						<g>
							<defs>
								<rect id="XMLID_24_" x="126.333" y="213.333" width="34.334" height="7.859"/>
							</defs>
							<use xlink:href="#XMLID_24_"  style="overflow:visible;fill:#033553;"/>
							<clipPath id="XMLID_00000104703009472122678690000003267941464459358598_">
								<use xlink:href="#XMLID_24_"  style="overflow:visible;"/>
							</clipPath>
							
								<rect x="124.05" y="205.721" style="clip-path:url(#XMLID_00000104703009472122678690000003267941464459358598_);fill:#FFFFFF;" width="38.164" height="9.147"/>
						</g>
						<g>
							<defs>
								<rect id="XMLID_23_" x="132.087" y="177.642" width="22.827" height="35.506"/>
							</defs>
							
								<linearGradient id="XMLID_00000111168640187189555270000014003045247407253121_" gradientUnits="userSpaceOnUse" x1="143.5" y1="209.7603" x2="143.5" y2="173.2738">
								<stop  offset="0" style="stop-color:#FFBEB4"/>
								<stop  offset="1" style="stop-color:#C77BCC"/>
							</linearGradient>
							
								<use xlink:href="#XMLID_23_"  style="overflow:visible;fill:url(#XMLID_00000111168640187189555270000014003045247407253121_);"/>
							<clipPath id="XMLID_00000021819894499498837650000011010280951335084950_">
								<use xlink:href="#XMLID_23_"  style="overflow:visible;"/>
							</clipPath>
							
								<polygon style="opacity:0.2;clip-path:url(#XMLID_00000021819894499498837650000011010280951335084950_);fill:#5A2F5B;" points="
								163.371,168.443 121.423,220.484 126.311,224.111 164.16,176.958 							"/>
							<polygon style="clip-path:url(#XMLID_00000021819894499498837650000011010280951335084950_);fill:#FFFFFF;" points="
								164.948,161.188 123,213.23 122.132,211.101 159.98,163.948 							"/>
							<polygon style="clip-path:url(#XMLID_00000021819894499498837650000011010280951335084950_);fill:#FFFFFF;" points="
								170.941,166.393 128.992,218.434 130.017,218.197 167.866,171.045 							"/>
							
								<polygon style="opacity:0.2;clip-path:url(#XMLID_00000021819894499498837650000011010280951335084950_);fill:#5A2F5B;" points="
								163.371,183.74 121.423,235.781 126.311,249.974 164.16,202.822 							"/>
						</g>
					</g>
					<g>
						<path style="fill:#EFB7A7;" d="M145.481,167.824c0,1.079-0.875,1.954-1.954,1.954c-1.079,0-1.954-0.875-1.954-1.954
							c0-1.079,0.875-1.954,1.954-1.954C144.606,165.87,145.481,166.745,145.481,167.824z"/>
						<circle style="fill:#EFB7A7;" cx="136.977" cy="168.036" r="1.004"/>
						<circle style="fill:#EFB7A7;" cx="150.023" cy="168.036" r="1.004"/>
					</g>
				</g>
				<g>
					<g>
						<rect x="183.664" y="173.259" style="fill:#033553;" width="25.673" height="2.612"/>
						<path style="fill:#FFCABE;" d="M209.336,172.002h-25.673l0,0c0-4.784,3.878-8.662,8.662-8.662h8.349
							C205.458,163.34,209.336,167.219,209.336,172.002L209.336,172.002z"/>
						<rect x="181.346" y="171.435" style="fill:#EFB7A7;" width="30.309" height="1.91"/>
						<rect x="182.395" y="174.909" style="fill:#033553;" width="28.211" height="40.973"/>
						<rect x="180.839" y="215.523" style="fill:#35848A;" width="31.321" height="7.311"/>
						<g>
							<defs>
								<rect id="XMLID_54_" x="179.333" y="213.333" width="34.334" height="7.859"/>
							</defs>
							<use xlink:href="#XMLID_54_"  style="overflow:visible;fill:#033553;"/>
							<clipPath id="XMLID_00000074407071915420785960000008300990150738973614_">
								<use xlink:href="#XMLID_54_"  style="overflow:visible;"/>
							</clipPath>
							
								<rect x="177.05" y="205.721" style="clip-path:url(#XMLID_00000074407071915420785960000008300990150738973614_);fill:#FFFFFF;" width="38.164" height="9.147"/>
						</g>
						<g>
							<defs>
								<rect id="XMLID_53_" x="185.087" y="177.642" width="22.827" height="35.506"/>
							</defs>
							
								<linearGradient id="XMLID_00000106857154489158453760000012720801296535087502_" gradientUnits="userSpaceOnUse" x1="196.5" y1="209.7603" x2="196.5" y2="173.2738">
								<stop  offset="0" style="stop-color:#FFBEB4"/>
								<stop  offset="1" style="stop-color:#C77BCC"/>
							</linearGradient>
							
								<use xlink:href="#XMLID_53_"  style="overflow:visible;fill:url(#XMLID_00000106857154489158453760000012720801296535087502_);"/>
							<clipPath id="XMLID_00000157993851738040249960000013508229410220331953_">
								<use xlink:href="#XMLID_53_"  style="overflow:visible;"/>
							</clipPath>
							
								<polygon style="opacity:0.2;clip-path:url(#XMLID_00000157993851738040249960000013508229410220331953_);fill:#5A2F5B;" points="
								216.371,168.443 174.423,220.484 179.311,224.111 217.16,176.958 							"/>
							<polygon style="clip-path:url(#XMLID_00000157993851738040249960000013508229410220331953_);fill:#FFFFFF;" points="
								217.948,161.188 176,213.23 175.132,211.101 212.98,163.948 							"/>
							<polygon style="clip-path:url(#XMLID_00000157993851738040249960000013508229410220331953_);fill:#FFFFFF;" points="
								223.941,166.393 181.992,218.434 183.017,218.197 220.866,171.045 							"/>
							
								<polygon style="opacity:0.2;clip-path:url(#XMLID_00000157993851738040249960000013508229410220331953_);fill:#5A2F5B;" points="
								216.371,183.74 174.423,235.781 179.311,249.974 217.16,202.822 							"/>
						</g>
					</g>
					<g>
						<path style="fill:#EFB7A7;" d="M198.481,167.824c0,1.079-0.875,1.954-1.954,1.954c-1.079,0-1.954-0.875-1.954-1.954
							c0-1.079,0.875-1.954,1.954-1.954C197.606,165.87,198.481,166.745,198.481,167.824z"/>
						<circle style="fill:#EFB7A7;" cx="189.977" cy="168.036" r="1.004"/>
						<circle style="fill:#EFB7A7;" cx="203.023" cy="168.036" r="1.004"/>
					</g>
				</g>
				<g>
					<g>
						<rect x="236.664" y="173.259" style="fill:#033553;" width="25.673" height="2.612"/>
						<path style="fill:#FFCABE;" d="M262.336,172.002h-25.673l0,0c0-4.784,3.878-8.662,8.662-8.662h8.349
							C258.458,163.34,262.336,167.219,262.336,172.002L262.336,172.002z"/>
						<rect x="234.346" y="171.435" style="fill:#EFB7A7;" width="30.309" height="1.91"/>
						<rect x="235.395" y="174.909" style="fill:#033553;" width="28.211" height="40.973"/>
						<rect x="233.839" y="215.523" style="fill:#35848A;" width="31.321" height="7.311"/>
						<g>
							<defs>
								<rect id="XMLID_56_" x="232.333" y="213.333" width="34.334" height="7.859"/>
							</defs>
							<use xlink:href="#XMLID_56_"  style="overflow:visible;fill:#033553;"/>
							<clipPath id="XMLID_00000010269263327456332620000010487505875814738870_">
								<use xlink:href="#XMLID_56_"  style="overflow:visible;"/>
							</clipPath>
							
								<rect x="230.05" y="205.721" style="clip-path:url(#XMLID_00000010269263327456332620000010487505875814738870_);fill:#FFFFFF;" width="38.164" height="9.147"/>
						</g>
						<g>
							<defs>
								<rect id="XMLID_55_" x="238.087" y="177.642" width="22.827" height="35.506"/>
							</defs>
							
								<linearGradient id="XMLID_00000090260302114580314740000001706076147069125033_" gradientUnits="userSpaceOnUse" x1="249.5" y1="209.7603" x2="249.5" y2="173.2738">
								<stop  offset="0" style="stop-color:#FFBEB4"/>
								<stop  offset="1" style="stop-color:#C77BCC"/>
							</linearGradient>
							
								<use xlink:href="#XMLID_55_"  style="overflow:visible;fill:url(#XMLID_00000090260302114580314740000001706076147069125033_);"/>
							<clipPath id="XMLID_00000076590503170275489300000002280061728325915277_">
								<use xlink:href="#XMLID_55_"  style="overflow:visible;"/>
							</clipPath>
							
								<polygon style="opacity:0.2;clip-path:url(#XMLID_00000076590503170275489300000002280061728325915277_);fill:#5A2F5B;" points="
								269.371,168.443 227.423,220.484 232.311,224.111 270.16,176.958 							"/>
							<polygon style="clip-path:url(#XMLID_00000076590503170275489300000002280061728325915277_);fill:#FFFFFF;" points="
								270.948,161.188 229,213.23 228.132,211.101 265.98,163.948 							"/>
							<polygon style="clip-path:url(#XMLID_00000076590503170275489300000002280061728325915277_);fill:#FFFFFF;" points="
								276.941,166.393 234.992,218.434 236.017,218.197 273.866,171.045 							"/>
							
								<polygon style="opacity:0.2;clip-path:url(#XMLID_00000076590503170275489300000002280061728325915277_);fill:#5A2F5B;" points="
								269.371,183.74 227.423,235.781 232.311,249.974 270.16,202.822 							"/>
						</g>
					</g>
					<g>
						<path style="fill:#EFB7A7;" d="M251.481,167.824c0,1.079-0.875,1.954-1.954,1.954c-1.079,0-1.954-0.875-1.954-1.954
							c0-1.079,0.875-1.954,1.954-1.954C250.606,165.87,251.481,166.745,251.481,167.824z"/>
						<circle style="fill:#EFB7A7;" cx="242.977" cy="168.036" r="1.004"/>
						<circle style="fill:#EFB7A7;" cx="256.023" cy="168.036" r="1.004"/>
					</g>
				</g>
			</g>
			<g>
				<g>
					<g>
						<rect x="77.664" y="243.259" style="fill:#033553;" width="25.673" height="2.612"/>
						<path style="fill:#FFCABE;" d="M103.336,242.002H77.664l0,0c0-4.784,3.878-8.662,8.662-8.662h8.349
							C99.458,233.34,103.336,237.219,103.336,242.002L103.336,242.002z"/>
						<rect x="75.346" y="241.435" style="fill:#EFB7A7;" width="30.309" height="1.91"/>
						<rect x="76.395" y="244.909" style="fill:#033553;" width="28.211" height="40.973"/>
						<rect x="74.84" y="285.523" style="fill:#35848A;" width="31.321" height="7.311"/>
						<g>
							<defs>
								<rect id="XMLID_64_" x="73.333" y="283.333" width="34.334" height="7.859"/>
							</defs>
							<use xlink:href="#XMLID_64_"  style="overflow:visible;fill:#033553;"/>
							<clipPath id="XMLID_00000095319018702691731380000015068668711792819606_">
								<use xlink:href="#XMLID_64_"  style="overflow:visible;"/>
							</clipPath>
							
								<rect x="71.05" y="275.721" style="clip-path:url(#XMLID_00000095319018702691731380000015068668711792819606_);fill:#FFFFFF;" width="38.164" height="9.147"/>
						</g>
						<g>
							<defs>
								<rect id="XMLID_63_" x="79.087" y="247.642" width="22.827" height="35.506"/>
							</defs>
							
								<linearGradient id="XMLID_00000103265115539224632290000005227626378894958012_" gradientUnits="userSpaceOnUse" x1="90.5" y1="279.7603" x2="90.5" y2="243.2738">
								<stop  offset="0" style="stop-color:#FFBEB4"/>
								<stop  offset="1" style="stop-color:#C77BCC"/>
							</linearGradient>
							
								<use xlink:href="#XMLID_63_"  style="overflow:visible;fill:url(#XMLID_00000103265115539224632290000005227626378894958012_);"/>
							<clipPath id="XMLID_00000099627724437363412170000009164768882520735367_">
								<use xlink:href="#XMLID_63_"  style="overflow:visible;"/>
							</clipPath>
							
								<polygon style="opacity:0.2;clip-path:url(#XMLID_00000099627724437363412170000009164768882520735367_);fill:#5A2F5B;" points="
								110.371,238.443 68.423,290.484 73.311,294.111 111.16,246.958 							"/>
							<polygon style="clip-path:url(#XMLID_00000099627724437363412170000009164768882520735367_);fill:#FFFFFF;" points="
								111.948,231.188 70,283.23 69.132,281.101 106.98,233.948 							"/>
							<polygon style="clip-path:url(#XMLID_00000099627724437363412170000009164768882520735367_);fill:#FFFFFF;" points="
								117.941,236.393 75.992,288.434 77.017,288.197 114.866,241.045 							"/>
							
								<polygon style="opacity:0.2;clip-path:url(#XMLID_00000099627724437363412170000009164768882520735367_);fill:#5A2F5B;" points="
								110.371,253.74 68.423,305.781 73.311,319.974 111.16,272.822 							"/>
						</g>
					</g>
					<g>
						<path style="fill:#EFB7A7;" d="M92.481,237.824c0,1.079-0.875,1.954-1.954,1.954c-1.079,0-1.954-0.875-1.954-1.954
							c0-1.079,0.875-1.954,1.954-1.954C91.606,235.87,92.481,236.745,92.481,237.824z"/>
						<circle style="fill:#EFB7A7;" cx="83.977" cy="238.036" r="1.004"/>
						<circle style="fill:#EFB7A7;" cx="97.023" cy="238.036" r="1.004"/>
					</g>
				</g>
				<g>
					<g>
						<rect x="130.664" y="243.259" style="fill:#033553;" width="25.673" height="2.612"/>
						<path style="fill:#FFCABE;" d="M156.336,242.002h-25.673l0,0c0-4.784,3.878-8.662,8.662-8.662h8.349
							C152.458,233.34,156.336,237.219,156.336,242.002L156.336,242.002z"/>
						<rect x="128.346" y="241.435" style="fill:#EFB7A7;" width="30.309" height="1.91"/>
						<rect x="129.395" y="244.909" style="fill:#033553;" width="28.211" height="40.973"/>
						<rect x="127.84" y="285.523" style="fill:#35848A;" width="31.321" height="7.311"/>
						<g>
							<defs>
								<rect id="XMLID_62_" x="126.333" y="283.333" width="34.334" height="7.859"/>
							</defs>
							<use xlink:href="#XMLID_62_"  style="overflow:visible;fill:#033553;"/>
							<clipPath id="XMLID_00000008135892157882351120000015579486486975434656_">
								<use xlink:href="#XMLID_62_"  style="overflow:visible;"/>
							</clipPath>
							
								<rect x="124.05" y="275.721" style="clip-path:url(#XMLID_00000008135892157882351120000015579486486975434656_);fill:#FFFFFF;" width="38.164" height="9.147"/>
						</g>
						<g>
							<defs>
								<rect id="XMLID_61_" x="132.087" y="247.642" width="22.827" height="35.506"/>
							</defs>
							
								<linearGradient id="XMLID_00000063597955382626277330000008204284652558898857_" gradientUnits="userSpaceOnUse" x1="143.5" y1="279.7603" x2="143.5" y2="243.2738">
								<stop  offset="0" style="stop-color:#FFBEB4"/>
								<stop  offset="1" style="stop-color:#C77BCC"/>
							</linearGradient>
							
								<use xlink:href="#XMLID_61_"  style="overflow:visible;fill:url(#XMLID_00000063597955382626277330000008204284652558898857_);"/>
							<clipPath id="XMLID_00000050645212641910187740000013572666061742451090_">
								<use xlink:href="#XMLID_61_"  style="overflow:visible;"/>
							</clipPath>
							
								<polygon style="opacity:0.2;clip-path:url(#XMLID_00000050645212641910187740000013572666061742451090_);fill:#5A2F5B;" points="
								163.371,238.443 121.423,290.484 126.311,294.111 164.16,246.958 							"/>
							<polygon style="clip-path:url(#XMLID_00000050645212641910187740000013572666061742451090_);fill:#FFFFFF;" points="
								164.948,231.188 123,283.23 122.132,281.101 159.98,233.948 							"/>
							<polygon style="clip-path:url(#XMLID_00000050645212641910187740000013572666061742451090_);fill:#FFFFFF;" points="
								170.941,236.393 128.992,288.434 130.017,288.197 167.866,241.045 							"/>
							
								<polygon style="opacity:0.2;clip-path:url(#XMLID_00000050645212641910187740000013572666061742451090_);fill:#5A2F5B;" points="
								163.371,253.74 121.423,305.781 126.311,319.974 164.16,272.822 							"/>
						</g>
					</g>
					<g>
						<path style="fill:#EFB7A7;" d="M145.481,237.824c0,1.079-0.875,1.954-1.954,1.954c-1.079,0-1.954-0.875-1.954-1.954
							c0-1.079,0.875-1.954,1.954-1.954C144.606,235.87,145.481,236.745,145.481,237.824z"/>
						<circle style="fill:#EFB7A7;" cx="136.977" cy="238.036" r="1.004"/>
						<circle style="fill:#EFB7A7;" cx="150.023" cy="238.036" r="1.004"/>
					</g>
				</g>
				<g>
					<g>
						<rect x="183.664" y="243.259" style="fill:#033553;" width="25.673" height="2.612"/>
						<path style="fill:#FFCABE;" d="M209.336,242.002h-25.673l0,0c0-4.784,3.878-8.662,8.662-8.662h8.349
							C205.458,233.34,209.336,237.219,209.336,242.002L209.336,242.002z"/>
						<rect x="181.346" y="241.435" style="fill:#EFB7A7;" width="30.309" height="1.91"/>
						<rect x="182.395" y="244.909" style="fill:#033553;" width="28.211" height="40.973"/>
						<rect x="180.839" y="285.523" style="fill:#35848A;" width="31.321" height="7.311"/>
						<g>
							<defs>
								<rect id="XMLID_60_" x="179.333" y="283.333" width="34.334" height="7.859"/>
							</defs>
							<use xlink:href="#XMLID_60_"  style="overflow:visible;fill:#033553;"/>
							<clipPath id="XMLID_00000134212498058285670520000003344196680653779376_">
								<use xlink:href="#XMLID_60_"  style="overflow:visible;"/>
							</clipPath>
							
								<rect x="177.05" y="275.721" style="clip-path:url(#XMLID_00000134212498058285670520000003344196680653779376_);fill:#FFFFFF;" width="38.164" height="9.147"/>
						</g>
						<g>
							<defs>
								<rect id="XMLID_59_" x="185.087" y="247.642" width="22.827" height="35.506"/>
							</defs>
							
								<linearGradient id="XMLID_00000140721404379290616630000005079314518651359667_" gradientUnits="userSpaceOnUse" x1="196.5" y1="279.7603" x2="196.5" y2="243.2738">
								<stop  offset="0" style="stop-color:#FFBEB4"/>
								<stop  offset="1" style="stop-color:#C77BCC"/>
							</linearGradient>
							
								<use xlink:href="#XMLID_59_"  style="overflow:visible;fill:url(#XMLID_00000140721404379290616630000005079314518651359667_);"/>
							<clipPath id="XMLID_00000054262798575397509810000013425558993341763773_">
								<use xlink:href="#XMLID_59_"  style="overflow:visible;"/>
							</clipPath>
							
								<polygon style="opacity:0.2;clip-path:url(#XMLID_00000054262798575397509810000013425558993341763773_);fill:#5A2F5B;" points="
								216.371,238.443 174.423,290.484 179.311,294.111 217.16,246.958 							"/>
							<polygon style="clip-path:url(#XMLID_00000054262798575397509810000013425558993341763773_);fill:#FFFFFF;" points="
								217.948,231.188 176,283.23 175.132,281.101 212.98,233.948 							"/>
							<polygon style="clip-path:url(#XMLID_00000054262798575397509810000013425558993341763773_);fill:#FFFFFF;" points="
								223.941,236.393 181.992,288.434 183.017,288.197 220.866,241.045 							"/>
							
								<polygon style="opacity:0.2;clip-path:url(#XMLID_00000054262798575397509810000013425558993341763773_);fill:#5A2F5B;" points="
								216.371,253.74 174.423,305.781 179.311,319.974 217.16,272.822 							"/>
						</g>
					</g>
					<g>
						<path style="fill:#EFB7A7;" d="M198.481,237.824c0,1.079-0.875,1.954-1.954,1.954c-1.079,0-1.954-0.875-1.954-1.954
							c0-1.079,0.875-1.954,1.954-1.954C197.606,235.87,198.481,236.745,198.481,237.824z"/>
						<circle style="fill:#EFB7A7;" cx="189.977" cy="238.036" r="1.004"/>
						<circle style="fill:#EFB7A7;" cx="203.023" cy="238.036" r="1.004"/>
					</g>
				</g>
				<g>
					<g>
						<rect x="236.664" y="243.259" style="fill:#033553;" width="25.673" height="2.612"/>
						<path style="fill:#FFCABE;" d="M262.336,242.002h-25.673l0,0c0-4.784,3.878-8.662,8.662-8.662h8.349
							C258.458,233.34,262.336,237.219,262.336,242.002L262.336,242.002z"/>
						<rect x="234.346" y="241.435" style="fill:#EFB7A7;" width="30.309" height="1.91"/>
						<rect x="235.395" y="244.909" style="fill:#033553;" width="28.211" height="40.973"/>
						<rect x="233.839" y="285.523" style="fill:#35848A;" width="31.321" height="7.311"/>
						<g>
							<defs>
								<rect id="XMLID_58_" x="232.333" y="283.333" width="34.334" height="7.859"/>
							</defs>
							<use xlink:href="#XMLID_58_"  style="overflow:visible;fill:#033553;"/>
							<clipPath id="XMLID_00000176024360379703465600000009475207056195293354_">
								<use xlink:href="#XMLID_58_"  style="overflow:visible;"/>
							</clipPath>
							
								<rect x="230.05" y="275.721" style="clip-path:url(#XMLID_00000176024360379703465600000009475207056195293354_);fill:#FFFFFF;" width="38.164" height="9.147"/>
						</g>
						<g>
							<defs>
								<rect id="XMLID_57_" x="238.087" y="247.642" width="22.827" height="35.506"/>
							</defs>
							
								<linearGradient id="XMLID_00000033346313861447866310000001023947054829295506_" gradientUnits="userSpaceOnUse" x1="249.5" y1="279.7603" x2="249.5" y2="243.2738">
								<stop  offset="0" style="stop-color:#FFBEB4"/>
								<stop  offset="1" style="stop-color:#C77BCC"/>
							</linearGradient>
							
								<use xlink:href="#XMLID_57_"  style="overflow:visible;fill:url(#XMLID_00000033346313861447866310000001023947054829295506_);"/>
							<clipPath id="XMLID_00000045599148166761124270000002989301159412081043_">
								<use xlink:href="#XMLID_57_"  style="overflow:visible;"/>
							</clipPath>
							
								<polygon style="opacity:0.2;clip-path:url(#XMLID_00000045599148166761124270000002989301159412081043_);fill:#5A2F5B;" points="
								269.371,238.443 227.423,290.484 232.311,294.111 270.16,246.958 							"/>
							<polygon style="clip-path:url(#XMLID_00000045599148166761124270000002989301159412081043_);fill:#FFFFFF;" points="
								270.948,231.188 229,283.23 228.132,281.101 265.98,233.948 							"/>
							<polygon style="clip-path:url(#XMLID_00000045599148166761124270000002989301159412081043_);fill:#FFFFFF;" points="
								276.941,236.393 234.992,288.434 236.017,288.197 273.866,241.045 							"/>
							
								<polygon style="opacity:0.2;clip-path:url(#XMLID_00000045599148166761124270000002989301159412081043_);fill:#5A2F5B;" points="
								269.371,253.74 227.423,305.781 232.311,319.974 270.16,272.822 							"/>
						</g>
					</g>
					<g>
						<path style="fill:#EFB7A7;" d="M251.481,237.824c0,1.079-0.875,1.954-1.954,1.954c-1.079,0-1.954-0.875-1.954-1.954
							c0-1.079,0.875-1.954,1.954-1.954C250.606,235.87,251.481,236.745,251.481,237.824z"/>
						<circle style="fill:#EFB7A7;" cx="242.977" cy="238.036" r="1.004"/>
						<circle style="fill:#EFB7A7;" cx="256.023" cy="238.036" r="1.004"/>
					</g>
				</g>
			</g>
			<g>
				<path style="fill:#033553;" d="M77.352,141.133L77.352,141.133c-2.586,0-4.683-2.097-4.683-4.683v-1.081
					c0-2.586,2.097-4.683,4.683-4.683l0,0c2.586,0,4.683,2.097,4.683,4.683v1.081C82.035,139.036,79.938,141.133,77.352,141.133z"/>
				<path style="fill:#033553;" d="M97.94,141.133L97.94,141.133c-2.586,0-4.683-2.097-4.683-4.683v-1.081
					c0-2.586,2.097-4.683,4.683-4.683h0c2.586,0,4.683,2.097,4.683,4.683v1.081C102.623,139.036,100.526,141.133,97.94,141.133z"/>
				<path style="fill:#033553;" d="M118.529,141.133L118.529,141.133c-2.586,0-4.683-2.097-4.683-4.683v-1.081
					c0-2.586,2.097-4.683,4.683-4.683l0,0c2.586,0,4.683,2.097,4.683,4.683v1.081C123.212,139.036,121.115,141.133,118.529,141.133z
					"/>
				<path style="fill:#033553;" d="M139.117,141.133L139.117,141.133c-2.586,0-4.683-2.097-4.683-4.683v-1.081
					c0-2.586,2.097-4.683,4.683-4.683l0,0c2.586,0,4.683,2.097,4.683,4.683v1.081C143.8,139.036,141.704,141.133,139.117,141.133z"
					/>
				<path style="fill:#033553;" d="M159.706,141.133L159.706,141.133c-2.586,0-4.683-2.097-4.683-4.683v-1.081
					c0-2.586,2.097-4.683,4.683-4.683l0,0c2.586,0,4.683,2.097,4.683,4.683v1.081C164.389,139.036,162.292,141.133,159.706,141.133z
					"/>
				<path style="fill:#033553;" d="M180.294,141.133L180.294,141.133c-2.586,0-4.683-2.097-4.683-4.683v-1.081
					c0-2.586,2.097-4.683,4.683-4.683l0,0c2.586,0,4.683,2.097,4.683,4.683v1.081C184.977,139.036,182.881,141.133,180.294,141.133z
					"/>
				<path style="fill:#033553;" d="M200.883,141.133L200.883,141.133c-2.586,0-4.683-2.097-4.683-4.683v-1.081
					c0-2.586,2.097-4.683,4.683-4.683l0,0c2.586,0,4.683,2.097,4.683,4.683v1.081C205.566,139.036,203.469,141.133,200.883,141.133z
					"/>
				<path style="fill:#033553;" d="M221.471,141.133L221.471,141.133c-2.586,0-4.683-2.097-4.683-4.683v-1.081
					c0-2.586,2.097-4.683,4.683-4.683l0,0c2.586,0,4.683,2.097,4.683,4.683v1.081C226.154,139.036,224.058,141.133,221.471,141.133z
					"/>
				<path style="fill:#033553;" d="M242.06,141.133L242.06,141.133c-2.586,0-4.683-2.097-4.683-4.683v-1.081
					c0-2.586,2.097-4.683,4.683-4.683l0,0c2.586,0,4.683,2.097,4.683,4.683v1.081C246.743,139.036,244.646,141.133,242.06,141.133z"
					/>
				<path style="fill:#033553;" d="M262.648,141.133L262.648,141.133c-2.586,0-4.683-2.097-4.683-4.683v-1.081
					c0-2.586,2.097-4.683,4.683-4.683l0,0c2.586,0,4.683,2.097,4.683,4.683v1.081C267.331,139.036,265.235,141.133,262.648,141.133z
					"/>
			</g>
			<g>
				<polygon style="fill:#F8FAFB;" points="103.278,333.311 103.984,335.945 106.708,335.803 104.421,337.289 105.398,339.835 
					103.278,338.119 101.158,339.835 102.134,337.289 99.848,335.803 102.571,335.945 				"/>
				<polygon style="fill:#F8FAFB;" points="112.79,333.311 113.497,335.945 116.22,335.803 113.934,337.289 114.91,339.835 
					112.79,338.119 110.67,339.835 111.647,337.289 109.36,335.803 112.084,335.945 				"/>
				<polygon style="fill:#F8FAFB;" points="122.303,333.311 123.009,335.945 125.733,335.803 123.446,337.289 124.423,339.835 
					122.303,338.119 120.183,339.835 121.159,337.289 118.873,335.803 121.596,335.945 				"/>
				<polygon style="fill:#F8FAFB;" points="131.815,333.311 132.522,335.945 135.245,335.803 132.958,337.289 133.935,339.835 
					131.815,338.119 129.695,339.835 130.672,337.289 128.385,335.803 131.108,335.945 				"/>
			</g>
			<g>
				<rect x="168.04" y="341.78" style="opacity:0.2;fill:#033553;" width="18.438" height="21.939"/>
				<rect x="167.008" y="333.5" style="fill:#FFCABE;" width="20.5" height="28"/>
				<rect x="169.681" y="336.53" style="fill:#033553;" width="15.154" height="21.939"/>
			</g>
			<g>
				<rect x="201.04" y="341.78" style="opacity:0.2;fill:#033553;" width="18.438" height="21.939"/>
				<rect x="200.008" y="333.5" style="fill:#FFCABE;" width="20.5" height="28"/>
				<rect x="202.681" y="336.53" style="fill:#033553;" width="15.154" height="21.939"/>
			</g>
			<g>
				<rect x="234.04" y="341.78" style="opacity:0.2;fill:#033553;" width="18.438" height="21.939"/>
				<rect x="233.008" y="333.5" style="fill:#FFCABE;" width="20.5" height="28"/>
				<rect x="235.681" y="336.53" style="fill:#033553;" width="15.154" height="21.939"/>
			</g>
		</g>
		<path style="fill:#CD443D;" d="M474.57,432.697H40.787c-3.174,0-5.748-2.573-5.748-5.748l0,0c0-3.174,2.573-5.748,5.748-5.748
			H474.57c3.174,0,5.748,2.573,5.748,5.748l0,0C480.318,430.124,477.744,432.697,474.57,432.697z"/>
		<g>
			<g>
				<g>
					<g>
						<defs>
							<path id="XMLID_71_" d="M340.258,182c0,0-27.506-13.685-34.25-13c-6.744,0.685-12.5,9.5-1.75,20.25
								c6.684,6.684,38.431,24.5,38.431,24.5L340.258,182z"/>
						</defs>
						<use xlink:href="#XMLID_71_"  style="overflow:visible;fill:#FFC4A8;"/>
						<clipPath id="XMLID_00000026140930392747983750000001315344044348081855_">
							<use xlink:href="#XMLID_71_"  style="overflow:visible;"/>
						</clipPath>
						<path style="opacity:0.2;clip-path:url(#XMLID_00000026140930392747983750000001315344044348081855_);fill:#FF4770;" d="
							M348.473,205.624c-20.252-2.086-39.486-12.714-52.028-28.751c1.341,3.434,2.682,6.868,4.023,10.301
							c1.628,4.169,3.282,8.387,5.876,12.035c3.652,5.138,8.955,8.849,14.367,12.082c6.75,4.032,13.845,7.487,21.182,10.314
							c5.387,2.076,11.145,3.837,16.857,3.004"/>
					</g>
					<g>
						<path style="fill:#033553;" d="M331.966,309.492h83.295c5.764,0,10.436-4.672,10.436-10.436V138.436
							c0-5.764-4.672-10.436-10.436-10.436h-83.295c-5.764,0-10.436,4.672-10.436,10.436v160.621
							C321.53,304.82,326.203,309.492,331.966,309.492z"/>
						<g>
							<defs>
								<path id="XMLID_69_" d="M334.489,302.979h78.25c3.269,0,5.918-2.65,5.918-5.918V139.474c0-3.269-2.65-5.918-5.918-5.918
									h-78.25c-3.269,0-5.918,2.65-5.918,5.918V297.06C328.57,300.329,331.22,302.979,334.489,302.979z"/>
							</defs>
							<use xlink:href="#XMLID_69_"  style="overflow:visible;fill:#EBEFF9;"/>
							<clipPath id="XMLID_00000175320626893126435770000002225570183906731444_">
								<use xlink:href="#XMLID_69_"  style="overflow:visible;"/>
							</clipPath>
						</g>
						<path style="fill:#033553;" d="M355.79,298.794h35.647c1.153,0,2.088-0.935,2.088-2.087l0,0c0-1.153-0.935-2.087-2.088-2.087
							H355.79c-1.153,0-2.087,0.935-2.087,2.087l0,0C353.703,297.859,354.637,298.794,355.79,298.794z"/>
						<path style="fill:#033553;" d="M354.827,138.221h37.574c3.193,0,5.781-2.588,5.781-5.781l0,0h-49.135l0,0
							C349.046,135.633,351.634,138.221,354.827,138.221z"/>
						<path style="fill:#35848A;" d="M392.703,288.339h-38.662c-3.293,0-5.962-2.669-5.962-5.962l0,0
							c0-3.293,2.669-5.962,5.962-5.962h38.662c3.293,0,5.962,2.669,5.962,5.962l0,0
							C398.665,285.67,395.996,288.339,392.703,288.339z"/>
						
							<text transform="matrix(1 0 0 1 358.1962 284.3193)" style="fill:#F8FAFB; font-family:'OpenSans-Bold'; font-size:5.4138px;">booking </text>
						<circle style="fill:#F8FAFB;" cx="373.614" cy="133.56" r="1.766"/>
					</g>
					<path style="fill:#FFC4A8;" d="M333.418,247.983c3.882,5.076,0.959,19.811-4.154,21.728
						c-5.112,1.917-13.023-0.372-17.506-3.711c-5.501-4.099-4.279-17.593,1.25-21.75
						C316.126,241.906,329.264,242.551,333.418,247.983z"/>
					<path style="fill:#FFC4A8;" d="M330.172,275.267c4.076,3.498,4.238,16.124,0.368,18.591c-3.87,2.467-13.332,2.833-16.531-0.608
						s-4.572-10.616-0.5-15.75C315.546,274.931,325.81,271.523,330.172,275.267z"/>
					<path style="fill:#FF8ABC;" d="M329.167,249.15c0,0-5.113,9.586-1.598,15.977C314.788,260.973,317.344,245.316,329.167,249.15z
						"/>
					<path style="fill:#FF8ABC;" d="M327.718,277.271c0,0-2.372,8.505,1.54,12.958C318.386,289.179,317.663,276.306,327.718,277.271
						z"/>
					<g>
						<defs>
							<path id="XMLID_68_" d="M350.258,309.5c0,0,14.5,34,56.5,49.5c5,19,14.5,83,14.5,83l72.167-6.333L468.258,335.5
								c0,0,9-62.5,7-74.5s-50-47.5-62.5-68.5c-10.394,7.995-11.927,16.841-9.989,28.084c1.807,10.478,10.234,18.213,20.234,30.713
								c-12,17.5-14.245,50.203-7.743,58.196C401.258,309,350.258,309.5,350.258,309.5z"/>
						</defs>
						<use xlink:href="#XMLID_68_"  style="overflow:visible;fill:#FFC4A8;"/>
						<clipPath id="XMLID_00000145018688432420829650000013334613690558543014_">
							<use xlink:href="#XMLID_68_"  style="overflow:visible;"/>
						</clipPath>
						<path style="clip-path:url(#XMLID_00000145018688432420829650000013334613690558543014_);fill:#FF8ABC;" d="M416.212,192.511
							c0,0-4.035,4.842-1.816,9.683c2.219,4.842,11.297,13.516,11.297,13.516s4.842-2.017,6.456-6.456
							C433.763,204.817,416.212,192.511,416.212,192.511z"/>
					</g>
					<path style="fill:#FFC4A8;" d="M308.508,212.5c-3.178,2.542-2,17.5,2.5,21s33.152,2.704,36.25,1
						c5-2.75,7.931-11.75,1.681-16.25S314.758,207.5,308.508,212.5z"/>
					<path style="fill:#FF8ABC;" d="M347.008,220.25c0,0,0,6.25-0.25,11c-8.75-0.25-11.5-2-11-7.25S347.008,220.25,347.008,220.25z"
						/>
				</g>
				<g>
					<defs>
						<polyline id="XMLID_67_" points="406.092,445.667 423.044,500 500,500 500,442.008 479.425,355.667 						"/>
					</defs>
					<use xlink:href="#XMLID_67_"  style="overflow:visible;fill:#FFCE34;"/>
					<clipPath id="XMLID_00000021807615095529254820000006499145410385126275_">
						<use xlink:href="#XMLID_67_"  style="overflow:visible;"/>
					</clipPath>
					<path style="opacity:0.2;clip-path:url(#XMLID_00000021807615095529254820000006499145410385126275_);fill:#FF3553;" d="
						M495.155,334.436c-12.795,49.893-35.768,97.153-67.097,138.037c-11.072,14.449-23.749,28.539-40.445,35.793
						c-5.164,2.243-12.01,3.439-15.74-0.778c-1.675-1.894-2.289-4.497-2.542-7.013c-0.888-8.826,1.959-17.582,5.251-25.82
						c6.63-16.592,15.198-32.328,23.745-48.019c19.521-35.839,39.401-72.17,67.871-101.41c7.705-7.913,16.16-15.364,26.198-19.969
						c2.469-1.132,5.157-2.103,7.847-1.729c4.33,0.603,7.533,4.645,8.552,8.896c1.019,4.251,0.31,8.703-0.403,13.016"/>
					<path style="opacity:0.2;clip-path:url(#XMLID_00000021807615095529254820000006499145410385126275_);fill:#FF3553;" d="
						M506.964,364.13c-12.937,30.937-23.713,62.728-34.261,94.558c-2.333,7.04-4.513,15.298-0.334,21.426
						c18.192-13.249,31.984-31.993,41.21-52.521c9.225-20.527,14.049-42.822,16.321-65.212"/>
				</g>
				<path style="fill:#FFCE34;" d="M477.425,337.667c0,0-48.667,66.667-86.667,102.667C398.092,451.667,402.092,457,402.092,457
					s69.333-56,84.667-110C483.425,341.667,477.425,337.667,477.425,337.667z"/>
			</g>
			<rect x="336.286" y="149.765" style="opacity:0.2;fill:#033553;" width="59.257" height="6.865"/>
			<rect x="336.286" y="168.626" style="opacity:0.2;fill:#033553;" width="59.257" height="6.865"/>
			<rect x="344.573" y="251.365" style="opacity:0.2;fill:#033553;" width="59.257" height="4.028"/>
			<rect x="344.573" y="241.007" style="opacity:0.2;fill:#033553;" width="59.257" height="4.028"/>
			<rect x="344.573" y="260.551" style="opacity:0.2;fill:#033553;" width="59.257" height="4.028"/>
			<path style="fill:#033553;" d="M411.969,152.697c0-3.004-2.435-5.438-5.439-5.438s-5.438,2.435-5.438,5.438
				s2.435,5.438,5.438,5.438S411.969,155.7,411.969,152.697z"/>
			<path style="fill:#033553;" d="M411.969,172.12c0-3.004-2.435-5.438-5.439-5.438s-5.438,2.435-5.438,5.438
				s2.435,5.438,5.438,5.438S411.969,175.123,411.969,172.12z"/>
		</g>
		<g>
			<path style="fill:#DBE3F5;" d="M294.405,37.416l54.153,38.216c2.368,1.585,3.914,3.427,2.33,5.795v0
				c-1.585,2.368-3.422,0.96-5.79-0.625l-56.432-34.811c-2.368-1.585-5.727-6.613-4.142-8.981l0,0
				C286.108,34.643,292.037,35.831,294.405,37.416z"/>
			<g>
				<path style="fill:#DBE3F5;" d="M304.877,54.208l2.211,36.142c0.09,1.477,1.241,2.668,2.714,2.81l4.57,0.44
					c1.342,0.129,2.606-0.651,3.092-1.908l8.931-23.08"/>
				<path style="fill:#DBE3F5;" d="M308.522,48.762l34.255-11.735c1.4-0.479,2.94,0.13,3.632,1.438l2.149,4.057
					c0.631,1.192,0.392,2.657-0.585,3.587l-17.932,17.056"/>
			</g>
			<g>
				<path style="fill:#DBE3F5;" d="M345.051,78.651l1.832,9.788c0.086,0.46,0.452,0.815,0.914,0.889l2.528,0.401
					c0.652,0.103,1.248-0.383,1.278-1.042l0.324-7.164L345.051,78.651z"/>
				<path style="fill:#DBE3F5;" d="M346.096,77.091l9.724-2.033c0.472-0.099,0.955,0.11,1.206,0.521l1.303,2.131
					c0.355,0.58,0.125,1.34-0.491,1.627l-6.465,3.015L346.096,77.091z"/>
			</g>
		</g>
	</g>
</g>
<g id="DESIGNED_BY_FREEPIK">
	<g>
		<g id="XMLID_25_">
			<g id="XMLID_44_">
				<path id="XMLID_52_" style="fill:#ABB6C5;" d="M260.104,465.465c-0.432,0.443-0.803,0.931-1.109,1.453l-0.465-0.241
					c-0.067-0.298-0.349-0.503-0.659-0.466c-0.331,0.039-0.568,0.339-0.529,0.67c0.039,0.331,0.339,0.568,0.67,0.529
					c0.065-0.008,0.127-0.026,0.183-0.052l0.451,0.234c-0.251,0.554-0.433,1.139-0.539,1.744l0.746,0.132
					c0.23-1.306,0.85-2.507,1.792-3.473L260.104,465.465z"/>
				<path id="XMLID_51_" style="fill:#ABB6C5;" d="M265.592,463.163c-0.171,0-0.341,0.006-0.51,0.017l-0.074-0.626
					c0.188-0.149,0.296-0.389,0.266-0.645c-0.046-0.393-0.402-0.674-0.795-0.628c-0.393,0.046-0.674,0.402-0.628,0.795
					c0.03,0.254,0.19,0.461,0.405,0.564l0.074,0.624c-0.714,0.116-1.403,0.332-2.06,0.646l0.327,0.684
					c0.934-0.447,1.942-0.673,2.995-0.673c0.496,0,0.993,0.053,1.475,0.158l0.16-0.741
					C266.692,463.222,266.142,463.163,265.592,463.163z"/>
				<path id="XMLID_50_" style="fill:#ABB6C5;" d="M272.194,465.711c0.331-0.04,0.566-0.341,0.525-0.672
					c-0.04-0.331-0.341-0.566-0.672-0.526c-0.309,0.038-0.535,0.304-0.53,0.609l-0.416,0.363c-0.418-0.43-0.89-0.813-1.408-1.139
					l-0.404,0.641c1.134,0.715,2.02,1.726,2.563,2.925l0.69-0.313c-0.251-0.554-0.568-1.072-0.942-1.545l0.402-0.351
					C272.065,465.716,272.129,465.719,272.194,465.711z"/>
				<path id="XMLID_49_" style="fill:#ABB6C5;" d="M265.044,473.372c-0.386,0.023-0.775,0.035-1.157,0.035
					c-0.88,0-1.733-0.061-2.478-0.179c-0.39-0.062-0.846-0.155-1.27-0.292c1.046,1.861,3.069,3.125,5.388,3.125
					c2.855,0,5.262-1.916,5.95-4.504c-0.682,0.449-1.505,0.825-2.459,1.123C267.839,473.047,266.464,473.286,265.044,473.372z"/>
				<path id="XMLID_45_" style="fill:#ABB6C5;" d="M265.592,464.68c-3.352,0-6.08,2.666-6.08,5.943c0,0.426,0.046,0.849,0.137,1.261
					c0.674,0.483,2.706,0.89,5.348,0.731c2.88-0.173,5.297-0.957,6.672-2.159c-0.005-0.195-0.021-0.39-0.045-0.582
					C271.244,466.913,268.651,464.68,265.592,464.68z M263.432,471.194c-1.02,0-1.85-0.83-1.85-1.85c0-1.02,0.83-1.85,1.85-1.85
					s1.85,0.83,1.85,1.85C265.282,470.365,264.452,471.194,263.432,471.194z M268.17,470.286c-0.75,0-1.36-0.61-1.36-1.36
					s0.61-1.361,1.36-1.361c0.75,0,1.361,0.61,1.361,1.361S268.92,470.286,268.17,470.286z"/>
			</g>
			<path id="XMLID_42_" style="fill:#ABB6C5;" d="M281.595,466.547c-0.295-0.116-0.805-0.309-1.382-0.237
				c-0.551,0.069-0.844,0.341-0.844,1.007v0.866h2.228v1.717h-2.228v5.455h-1.932v-5.455h-1.339v-1.717h1.339v-0.888
				c0-1.68,0.896-2.783,2.568-2.783c0.642,0,1.157,0.122,1.59,0.308L281.595,466.547z"/>
			<path id="XMLID_40_" style="fill:#ABB6C5;" d="M286.298,469.879c-0.177-0.03-0.358-0.046-0.526-0.046
				c-0.896,0-1.51,0.548-1.51,1.614v3.908h-1.932v-7.172h1.873v0.785c0.451-0.673,1.14-0.977,2.021-0.977
				c0.414,0,0.848,0.128,1.094,0.337L286.298,469.879z"/>
			<path id="XMLID_37_" style="fill:#ABB6C5;" d="M293.965,471.757c0,0.222-0.015,0.489-0.037,0.651h-5.085
				c0.207,1.036,0.933,1.488,1.843,1.488c0.622,0,1.295-0.252,1.813-0.688l1.132,1.243c-0.814,0.748-1.85,1.088-3.057,1.088
				c-2.198,0-3.723-1.495-3.723-3.753c0-2.258,1.48-3.797,3.627-3.797C292.544,467.99,293.958,469.522,293.965,471.757z
				 M288.851,471.091h3.175c-0.177-0.918-0.733-1.436-1.561-1.436C289.554,469.655,289.021,470.203,288.851,471.091z"/>
			<path id="XMLID_34_" style="fill:#ABB6C5;" d="M301.618,471.757c0,0.222-0.015,0.489-0.037,0.651h-5.085
				c0.207,1.036,0.933,1.488,1.843,1.488c0.622,0,1.295-0.252,1.813-0.688l1.132,1.243c-0.814,0.748-1.85,1.088-3.057,1.088
				c-2.198,0-3.723-1.495-3.723-3.753c0-2.258,1.48-3.797,3.626-3.797C300.197,467.99,301.611,469.522,301.618,471.757z
				 M296.504,471.091h3.175c-0.178-0.918-0.733-1.436-1.562-1.436C297.207,469.655,296.674,470.203,296.504,471.091z"/>
			<path id="XMLID_31_" style="fill:#ABB6C5;" d="M309.964,471.764c0,2.154-1.495,3.775-3.471,3.775
				c-0.962,0-1.643-0.378-2.109-0.933v3.708h-1.924v-10.133h1.887v0.792c0.466-0.585,1.155-0.984,2.139-0.984
				C308.469,467.99,309.964,469.61,309.964,471.764z M304.287,471.764c0,1.132,0.747,1.976,1.843,1.976
				c1.14,0,1.85-0.881,1.85-1.976c0-1.095-0.71-1.976-1.85-1.976C305.035,469.788,304.287,470.632,304.287,471.764z"/>
			<path id="XMLID_28_" style="fill:#ABB6C5;" d="M313.068,465.836c0,0.696-0.54,1.229-1.236,1.229
				c-0.696,0-1.229-0.533-1.229-1.229c0-0.696,0.533-1.243,1.229-1.243C312.527,464.592,313.068,465.14,313.068,465.836z
				 M312.809,475.354h-1.932v-7.172h1.932V475.354z"/>
			<path id="XMLID_26_" style="fill:#ABB6C5;" d="M316.032,470.736l2.701-2.554h2.368l-3.479,3.375l3.501,3.797h-2.376l-2.716-2.901
				v2.901h-1.932v-10.658h1.932V470.736z"/>
		</g>
		<g>
			<path style="fill:#ABB6C5;" d="M184.412,475.289v-1.055c-0.527,0.718-1.391,1.23-2.387,1.23c-1.846,0-3.149-1.406-3.149-3.706
				c0-2.256,1.289-3.721,3.149-3.721c0.952,0,1.816,0.469,2.387,1.245v-3.765h1.099v9.77H184.412z M184.412,473.37v-3.208
				c-0.395-0.615-1.245-1.143-2.124-1.143c-1.421,0-2.27,1.172-2.27,2.739c0,1.567,0.85,2.724,2.27,2.724
				C183.167,474.483,184.017,473.986,184.412,473.37z"/>
			<path style="fill:#ABB6C5;" d="M186.932,471.744c0-2.051,1.465-3.706,3.486-3.706c2.139,0,3.398,1.67,3.398,3.794v0.279h-5.727
				c0.088,1.333,1.025,2.446,2.549,2.446c0.805,0,1.626-0.322,2.182-0.894l0.527,0.718c-0.703,0.703-1.655,1.084-2.813,1.084
				C188.44,475.465,186.932,473.956,186.932,471.744z M190.403,468.947c-1.509,0-2.256,1.274-2.314,2.358h4.643
				C192.718,470.25,192.014,468.947,190.403,468.947z"/>
			<path style="fill:#ABB6C5;" d="M194.607,474.351l0.571-0.791c0.469,0.542,1.362,1.011,2.329,1.011c1.084,0,1.67-0.513,1.67-1.216
				c0-1.714-4.38-0.659-4.38-3.281c0-1.098,0.952-2.036,2.636-2.036c1.201,0,2.051,0.454,2.622,1.026l-0.513,0.762
				c-0.424-0.513-1.201-0.894-2.109-0.894c-0.967,0-1.567,0.483-1.567,1.113c0,1.552,4.38,0.527,4.38,3.281
				c0,1.187-0.952,2.138-2.783,2.138C196.306,475.465,195.325,475.113,194.607,474.351z"/>
			<path style="fill:#ABB6C5;" d="M201.477,466.471c0-0.41,0.337-0.747,0.732-0.747c0.41,0,0.747,0.337,0.747,0.747
				c0,0.41-0.337,0.732-0.747,0.732C201.814,467.203,201.477,466.881,201.477,466.471z M201.667,475.289v-7.075h1.099v7.075H201.667
				z"/>
			<path style="fill:#ABB6C5;" d="M204.582,477.105l0.556-0.82c0.586,0.703,1.289,0.967,2.3,0.967c1.172,0,2.27-0.571,2.27-2.124
				v-1.011c-0.513,0.718-1.377,1.26-2.373,1.26c-1.845,0-3.149-1.377-3.149-3.662c0-2.27,1.289-3.677,3.149-3.677
				c0.952,0,1.802,0.469,2.373,1.245v-1.069h1.098v6.87c0,2.344-1.64,3.076-3.369,3.076
				C206.237,478.16,205.417,477.926,204.582,477.105z M209.709,473.253v-3.091c-0.381-0.615-1.23-1.143-2.109-1.143
				c-1.421,0-2.27,1.128-2.27,2.695c0,1.553,0.849,2.695,2.27,2.695C208.478,474.41,209.328,473.868,209.709,473.253z"/>
			<path style="fill:#ABB6C5;" d="M217.413,475.289v-4.629c0-1.245-0.63-1.641-1.582-1.641c-0.865,0-1.685,0.527-2.095,1.099v5.17
				h-1.099v-7.075h1.099v1.025c0.498-0.586,1.465-1.201,2.519-1.201c1.48,0,2.256,0.747,2.256,2.285v4.966H217.413z"/>
			<path style="fill:#ABB6C5;" d="M219.932,471.744c0-2.051,1.465-3.706,3.486-3.706c2.139,0,3.398,1.67,3.398,3.794v0.279h-5.727
				c0.088,1.333,1.025,2.446,2.549,2.446c0.806,0,1.626-0.322,2.183-0.894l0.527,0.718c-0.703,0.703-1.655,1.084-2.812,1.084
				C221.441,475.465,219.932,473.956,219.932,471.744z M223.404,468.947c-1.509,0-2.256,1.274-2.314,2.358h4.643
				C225.718,470.25,225.015,468.947,223.404,468.947z"/>
			<path style="fill:#ABB6C5;" d="M233.35,475.289v-1.055c-0.527,0.718-1.391,1.23-2.388,1.23c-1.846,0-3.149-1.406-3.149-3.706
				c0-2.256,1.289-3.721,3.149-3.721c0.952,0,1.817,0.469,2.388,1.245v-3.765h1.098v9.77H233.35z M233.35,473.37v-3.208
				c-0.396-0.615-1.245-1.143-2.124-1.143c-1.421,0-2.27,1.172-2.27,2.739c0,1.567,0.85,2.724,2.27,2.724
				C232.105,474.483,232.954,473.986,233.35,473.37z"/>
			<path style="fill:#ABB6C5;" d="M239.692,475.289v-9.77h1.099v3.765c0.572-0.776,1.421-1.245,2.388-1.245
				c1.845,0,3.149,1.465,3.149,3.721c0,2.299-1.304,3.706-3.149,3.706c-0.996,0-1.86-0.513-2.388-1.23v1.055H239.692z
				 M242.9,474.483c1.436,0,2.285-1.157,2.285-2.724c0-1.568-0.85-2.739-2.285-2.739c-0.864,0-1.728,0.527-2.109,1.143v3.208
				C241.171,473.986,242.036,474.483,242.9,474.483z"/>
			<path style="fill:#ABB6C5;" d="M247.528,477.061c0.161,0.073,0.425,0.117,0.601,0.117c0.483,0,0.806-0.161,1.055-0.747
				l0.469-1.069l-2.959-7.148h1.187l2.358,5.8l2.344-5.8h1.201l-3.545,8.51c-0.425,1.025-1.143,1.421-2.08,1.435
				c-0.234,0-0.601-0.044-0.805-0.103L247.528,477.061z"/>
		</g>
	</g>
</g>
</svg>
